# xmcd
#
# Track frame offsets: 
#        150
#        13778
#        26374
#        38927
#        45607
#        59132
#        71134
#        80045
#        92767
#        107558
#        123648
#        137176
#        148435
#        166617
#        178374
#        189402
#        202652
#        214354
#        226070
#        237981
#        250284
#        262202
#        275972
#        287255
#        300262
#        311661
#        324534
#        334387
#        346927
#
# Disc length: 4794 seconds
#
# Revision: 0
# Processed by: cddbd v1.5.2PL0 Copyright (c) Steve Scherf et al.
# Submitted via: ExactAudioCopyFreeDBPlugin 1.0
#
DISCID=c212b81d
DTITLE=Dick Curless - The Long Lonesome Road
DYEAR=1968
DGENRE=Country
TTITLE0=You Can't Go Back Again
TTITLE1=Wrinkled, Crinkled, Wadded Dollar Bill
TTITLE2=Bury The Bottle With Me
TTITLE3=End Of The Road
TTITLE4=Just For The Record
TTITLE5=Shoes
TTITLE6=I Ain't Got Nobody
TTITLE7=The Heartline Special
TTITLE8=Bummin' On Track E
TTITLE9=When Dad Was Around
TTITLE10=A Tombstone Every Mile
TTITLE11=Six Times A Day
TTITLE12=Foggy Foggy Dew
TTITLE13=Down By The Old River
TTITLE14=Highwayman
TTITLE15=The Wild Side Of Town
TTITLE16=The Good Old Days
TTITLE17=Nobody Knows You When You're Down And Out
TTITLE18=It's Nothing To Me
TTITLE19=Long Lonesome Highway
TTITLE20=Goin' Down That Road Feeling Bad
TTITLE21=The Lonesome Road
TTITLE22=Loser's Cocktail
TTITLE23=Woman Don't Try To Sing My Song
TTITLE24=Travelin' Light
TTITLE25=Stonin' Around
TTITLE26=Been There People
TTITLE27=Lazy Bones
TTITLE28=Old Bob Burton
EXTD=
EXTT0=
EXTT1=
EXTT2=
EXTT3=
EXTT4=
EXTT5=
EXTT6=
EXTT7=
EXTT8=
EXTT9=
EXTT10=
EXTT11=
EXTT12=
EXTT13=
EXTT14=
EXTT15=
EXTT16=
EXTT17=
EXTT18=
EXTT19=
EXTT20=
EXTT21=
EXTT22=
EXTT23=
EXTT24=
EXTT25=
EXTT26=
EXTT27=
EXTT28=
PLAYORDER=
